<svg width="23" height="31" viewBox="0 0 23 31" fill="none" xmlns="http://www.w3.org/2000/svg">
<path d="M11.75 30.6562C5.53906 30.6562 0.5 25.6172 0.5 19.4062C0.5 14.0625 8.12891 4.03711 10.2617 1.3418C10.6133 0.902344 11.1348 0.65625 11.6973 0.65625H11.8027C12.3652 0.65625 12.8867 0.902344 13.2383 1.3418C15.3711 4.03711 23 14.0625 23 19.4062C23 25.6172 17.9609 30.6562 11.75 30.6562ZM6.125 20.3438C6.125 19.8281 5.70312 19.4062 5.1875 19.4062C4.67188 19.4062 4.25 19.8281 4.25 20.3438C4.25 23.9707 7.18555 26.9062 10.8125 26.9062C11.3281 26.9062 11.75 26.4844 11.75 25.9688C11.75 25.4531 11.3281 25.0312 10.8125 25.0312C8.22266 25.0312 6.125 22.9336 6.125 20.3438Z" fill="#93C5FD"/>
</svg>
