<svg width="27" height="33" viewBox="0 0 27 33" fill="none" xmlns="http://www.w3.org/2000/svg">
<path d="M10.1742 5.28357C8.69766 7.68123 7.84687 10.5078 7.84687 13.5312C7.84687 20.4219 12.2625 26.2859 18.4219 28.4164C17.55 28.6133 16.643 28.7187 15.7078 28.7187C8.90156 28.7187 3.375 23.1851 3.375 16.3437C3.375 11.4992 6.14531 7.3156 10.1813 5.28357H10.1742ZM14.5406 0.642944C6.40547 1.2406 0 8.03982 0 16.3437C0 25.0414 7.03125 32.0937 15.7148 32.0937C19.0758 32.0937 22.1836 31.039 24.743 29.239C24.8766 29.1476 25.0031 29.0492 25.1297 28.9578C25.4672 28.7047 25.7906 28.4375 26.107 28.1562C26.2969 27.9875 26.4797 27.8187 26.6625 27.6429C27.0141 27.2984 27.1055 26.764 26.8805 26.3281C26.6555 25.8922 26.1703 25.6461 25.6852 25.7304C25.425 25.7726 25.1648 25.8148 24.9047 25.8429C24.5531 25.8781 24.1945 25.9062 23.8289 25.9133C23.7445 25.9133 23.6531 25.9133 23.5688 25.9133C23.5617 25.9133 23.5547 25.9133 23.5477 25.9133C16.7414 25.8992 11.2289 20.3656 11.2289 13.5383C11.2289 9.68513 12.9797 6.24685 15.7359 3.97576C15.8063 3.91248 15.8836 3.85623 15.9609 3.79294C16.2422 3.56794 16.5375 3.35701 16.8398 3.16013C17.0578 3.01951 17.2828 2.87888 17.5148 2.75232C17.9438 2.50623 18.1617 2.01404 18.0562 1.53591C17.9508 1.05779 17.543 0.699194 17.0508 0.657007C16.7977 0.635913 16.5516 0.62185 16.2984 0.614819C16.1086 0.607788 15.9117 0.607788 15.7219 0.607788C15.4898 0.607788 15.2648 0.614819 15.0328 0.621851C14.8711 0.628882 14.7094 0.635913 14.5477 0.649975L14.5406 0.642944Z" fill="#FDE68A"/>
</svg>
