<svg width="52" height="46" viewBox="0 0 52 46" fill="none" xmlns="http://www.w3.org/2000/svg">
<path d="M27.591 7.09007C19.7753 7.09007 13.1627 12.2111 10.9155 19.2711C14.2565 17.5807 18.0252 16.636 22.0226 16.636H30.773C31.648 16.636 32.364 17.352 32.364 18.227C32.364 19.102 31.648 19.818 30.773 19.818H29.182H22.0226C20.3719 19.818 18.771 20.0069 17.2297 20.3549C14.6543 20.9416 12.2579 21.9857 10.1299 23.4077C4.35262 27.2559 0.544189 33.8286 0.544189 41.2964V42.8873C0.544189 44.2099 1.60816 45.2738 2.93067 45.2738C4.25319 45.2738 5.31716 44.2099 5.31716 42.8873V41.2964C5.31716 36.4538 7.3755 32.0984 10.6669 29.0457C12.6357 36.5532 19.467 42.0919 27.591 42.0919H27.6905C40.8261 42.0222 51.4559 29.0756 51.4559 13.1159C51.4559 8.87994 50.7101 4.85274 49.3578 1.2233C49.0992 0.537183 48.0949 0.567015 47.7469 1.21335C45.8775 4.71353 42.1784 7.09007 37.9325 7.09007H27.591Z" fill="#6EE7B7"/>
</svg>
